<svg data-v-0dd9719b="" version="1.0" xmlns="http://www.w3.org/2000/svg" xmlns:xlink="http://www.w3.org/1999/xlink" width="100%" height="100%" viewBox="0 0 340.000000 250.000000" preserveAspectRatio="xMidYMid meet" color-interpolation-filters="sRGB" style="margin: auto;"> <rect data-v-0dd9719b="" x="0" y="0" width="100%" height="100%" fill="#fff" fill-opacity="0" class="background"></rect> <rect data-v-0dd9719b="" x="0" y="0" width="100%" height="100%" fill="url(#watermark)" fill-opacity="1" class="watermarklayer"></rect> <g data-v-0dd9719b="" fill="#333" class="icon-text-wrapper icon-svg-group iconsvg" transform="translate(66.22999572753906,91.95853447914124)"><g class="iconsvg-imagesvg" transform="translate(0,0)"><g><rect fill="#333" fill-opacity="0" stroke-width="2" x="0" y="0" width="60" height="66.08293408227325" class="image-rect"></rect> <svg x="0" y="0" width="60" height="66.08293408227325" filtersec="colorsb8945840204" class="image-svg-svg primary" style="overflow: visible;">
    <svg xmlns="http://www.w3.org/2000/svg" viewBox="-0.011059284210205078 0.004528522491455078 303.73333740234375 334.5265808105469">
        <title>资源 42</title><path d="M224.83 278.89c-.06 16.43-.19 32.85-.12 49.27 0 4-.63 6.43-5.56 6.37-22-.3-44-.3-66-.41l-1.24-.79-48-82.44c-15.41-26.57-30.74-53.19-46.52-80.48-2.25 3-1.39 5.66-1.4 8.05-.07 31-.16 62.08 0 93.12 0 5.35-1.19 7.51-7 7.35-14.32-.39-28.66-.18-43-.09-3.57 0-6.06-.27-6-5q.35-81.16.43-162.34c26.56 0 53.12.19 79.67-.18 5.91-.08 9.29 2 12 6.85 6.44 11.58 13.1 23 19.73 34.51 23.35 40.38 46.79 80.7 70 121.17 2.18 3.82 4.56 5.1 8.77 5 11.41-.16 22.82.02 34.24.04z" fill="#7111F1"></path><path d="M79.81 55.59c.06-15.92.47-31.85 0-47.76-.2-6.7 2.31-7.92 8.27-7.82 19.38.31 38.76.25 58.14 0 4.53 0 7.06 1.35 9.36 5.38q44.25 77.31 88.87 154.43c.53.91 1.12 1.79 1.87 3 2.11-1.64 1.21-3.83 1.21-5.62.07-31 .25-62.1-.09-93.15-.07-6.73 2-8.58 8.55-8.36 13.79.47 27.6.24 41.4.09 4.19 0 6.25 1 6.23 5.74q-.33 80.81-.36 161.6c-26.55 0-53.11-.14-79.66.16-5.21 0-8.48-1.53-10.91-6-3.83-7-7.91-13.78-11.87-20.66q-39.27-68.13-78.46-136.3c-2-3.56-4.47-4.65-8.3-4.61-11.41.13-22.83-.05-34.25-.12z" fill="#C85CFE"></path><path d="M79.81 55.59c11.42.07 22.84.25 34.25.16 3.83 0 6.26 1 8.3 4.61q39.08 68.23 78.46 136.3c4 6.88 8 13.7 11.87 20.66 2.43 4.42 5.7 6 10.91 6 26.55-.3 53.11-.15 79.66-.16.13 16.9.14 33.81.46 50.7.1 5.32-3.1 5.12-6.72 5.11q-36.09-.06-72.17 0c-11.42 0-22.84-.2-34.25 0-4.21.08-6.59-1.2-8.77-5-23.19-40.47-46.63-80.79-70-121.17-6.63-11.47-13.29-22.93-19.73-34.51-2.71-4.87-6.09-6.93-12-6.85-26.55.37-53.11.18-79.67.18-.08-16.72 0-33.36-.41-50-.13-5.44 2.57-5.85 6.82-5.84 24.35.04 48.67-.1 72.99-.19z" fill="#A337FE"></path></svg></svg> <!----></g></g> <g transform="translate(67,7.511465072631836)"><g data-gra="path-name" fill-rule="" class="tp-name iconsvg-namesvg"><g transform="scale(1)"><g><path d="M39.39 0L26.98 0 26.98-19.61Q26.98-23.2 25.95-25.03 24.91-26.85 22.63-26.85L22.63-26.85Q19.49-26.85 18.09-24.34 16.69-21.84 16.69-15.74L16.69-15.74 16.69 0 4.28 0 4.28-35.96 13.65-35.96 15.2-31.52 15.93-31.52Q17.52-34.06 20.33-35.32 23.14-36.59 26.79-36.59L26.79-36.59Q32.75-36.59 36.07-33.13 39.39-29.68 39.39-23.39L39.39-23.39 39.39 0ZM79.89 0L71.28 0 68.9-4.76 68.65-4.76Q66.14-1.65 63.54-0.51 60.94 0.63 56.81 0.63L56.81 0.63Q51.73 0.63 48.81-2.41 45.89-5.46 45.89-10.98L45.89-10.98Q45.89-16.73 49.89-19.53 53.89-22.34 61.48-22.69L61.48-22.69 67.48-22.88 67.48-23.39Q67.48-27.83 63.1-27.83L63.1-27.83Q59.16-27.83 53.1-25.17L53.1-25.17 49.51-33.36Q55.8-36.59 65.38-36.59L65.38-36.59Q72.3-36.59 76.09-33.17 79.89-29.74 79.89-23.58L79.89-23.58 79.89 0ZM62.08-8.13L62.08-8.13Q64.33-8.13 65.94-9.55 67.54-10.98 67.54-13.27L67.54-13.27 67.54-16.06 64.68-15.93Q58.56-15.71 58.56-11.43L58.56-11.43Q58.56-8.13 62.08-8.13ZM123.3 0L113.94 0 112.39-4.48 111.66-4.48Q110.1-2 107.32-0.68 104.55 0.63 100.8 0.63L100.8 0.63Q94.87 0.63 91.56-2.81 88.26-6.25 88.26-12.54L88.26-12.54 88.26-35.96 100.67-35.96 100.67-16.31Q100.67-12.79 101.67-10.98 102.67-9.17 104.96-9.17L104.96-9.17Q108.16-9.17 109.53-11.7 110.89-14.22 110.89-20.22L110.89-20.22 110.89-35.96 123.3-35.96 123.3 0ZM144.35-35.96L144.35 0 131.94 0 131.94-35.96 144.35-35.96ZM131.62-44.91L131.62-44.91Q131.62-47.7 133.17-49.07 134.73-50.43 138.19-50.43L138.19-50.43Q141.65-50.43 143.23-49.04 144.82-47.64 144.82-44.91L144.82-44.91Q144.82-39.45 138.19-39.45L138.19-39.45Q131.62-39.45 131.62-44.91Z" transform="translate(-4.28000020980835, 50.43000030517578)"></path></g> <!----> <!----> <!----> <!----> <!----> <!----> <!----></g></g> <!----></g></g><defs v-gra="od"></defs></svg>